<?xml version="1.0" encoding="UTF-8"?><svg id="Layer_1" xmlns="http://www.w3.org/2000/svg" viewBox="0 0 1080 330"><defs><style>.cls-1{fill:#5f6ba3;}.cls-1,.cls-2,.cls-3{stroke-width:0px;}.cls-2{fill:#2c245a;}.cls-3{fill:#70bc87;}</style></defs><path class="cls-2" d="M437.99,130.92c1.61,0,2.68,1.25,2.51,2.51l-2.68,27.2c-.18,1.43-1.61,2.5-2.86,2.5h-26.66v88.76c0,1.25-1.07,2.5-2.5,2.5h-31.67c-1.43,0-2.68-1.25-2.68-2.5v-88.76h-29.71c-1.25,0-2.51-1.07-2.51-2.5v-27.02c0-1.43,1.25-2.68,2.51-2.68h96.27Z"/><path class="cls-2" d="M537.31,155.97c1.43,0,2.68,1.25,2.68,2.68v93.23c0,1.25-1.25,2.5-2.68,2.5h-20.22c-1.43,0-2.33-1.25-2.86-2.68l-2.68-6.44c-6.44,7.16-17,11.81-28.63,11.81-23.26,0-37.04-14.85-37.04-39.19v-59.23c0-1.43,1.25-2.68,2.68-2.68h31.49c1.43,0,2.68,1.25,2.68,2.68v54.76c0,6.08,3.76,10.2,9.48,10.2,6.98,0,10.92-5.73,10.92-5.73v-59.23c0-1.43,1.25-2.68,2.68-2.68h31.49Z"/><path class="cls-2" d="M611.22,155.97c1.61,0,2.68,1.07,2.68,2.51l-1.97,17.36c-.18,1.43-1.25,2.68-2.68,2.68h-11.45v73.19c0,1.43-1.25,2.68-2.68,2.68h-31.49c-1.43,0-2.68-1.25-2.68-2.68v-73.19h-10.2c-1.25,0-2.5-1.07-2.5-2.5v-17.36c0-1.61,1.25-2.68,2.5-2.68h10.2v-19.5c0-1.25,1.25-2.33,2.68-2.51l31.49-3.04c1.43-.18,2.68,1.25,2.68,2.51v22.55h13.42Z"/><path class="cls-2" d="M720.91,205.18c0,31.14-21.12,51.89-52.61,51.89s-52.61-20.76-52.61-51.72,21.12-51.89,52.61-51.89,52.61,20.76,52.61,51.72ZM650.59,205.36c0,11.63,7.16,19.51,17.72,19.51s17.72-7.87,17.72-19.68-7.16-19.51-17.72-19.51-17.72,7.87-17.72,19.68Z"/><path class="cls-2" d="M787.66,155.97c1.43,0,2.51,1.07,2.51,2.51v23.26c0,1.43-1.07,2.5-2.51,2.5h-4.65c-6.8,0-12.88,3.04-15.21,7.52v59.95c0,1.43-1.25,2.68-2.68,2.68h-31.49c-1.43,0-2.68-1.25-2.68-2.68v-93.05c0-1.25,1.25-2.5,2.68-2.5h20.22c1.43,0,2.33,1.25,2.86,2.68l2.68,7.87c5.37-6.62,14.14-10.74,23.62-10.74h4.65Z"/><path class="cls-2" d="M844.93,130.92c31.31,0,50.1,17,50.1,42.59s-18.79,42.59-50.1,42.59h-7.34v35.79c0,1.25-1.25,2.5-2.86,2.5h-32.03c-1.25,0-2.5-1.25-2.5-2.5v-118.28c0-1.43,1.25-2.68,2.5-2.68h42.23ZM846.54,184.06c6.26,0,10.56-4.3,10.56-10.56s-4.29-10.56-10.56-10.56h-9.3v21.12h9.3Z"/><path class="cls-2" d="M959.27,155.97c1.43,0,2.51,1.07,2.51,2.51v23.26c0,1.43-1.07,2.5-2.51,2.5h-4.65c-6.8,0-12.88,3.04-15.21,7.52v59.95c0,1.43-1.25,2.68-2.68,2.68h-31.49c-1.43,0-2.68-1.25-2.68-2.68v-93.05c0-1.25,1.25-2.5,2.68-2.5h20.22c1.43,0,2.33,1.25,2.86,2.68l2.68,7.87c5.37-6.62,14.14-10.74,23.62-10.74h4.65Z"/><path class="cls-2" d="M1067,205.18c0,31.14-21.12,51.89-52.61,51.89s-52.61-20.76-52.61-51.72,21.12-51.89,52.61-51.89,52.61,20.76,52.61,51.72ZM996.67,205.36c0,11.63,7.16,19.51,17.72,19.51s17.72-7.87,17.72-19.68-7.16-19.51-17.72-19.51-17.72,7.87-17.72,19.68Z"/><path class="cls-1" d="M733.62,316.63c.35.63-.14,1.13-.77,1.13h-15.05c-.7,0-1.34-.49-1.62-1.13l-7.32-15.33h-.84v15.48c0,.49-.49.98-1.13.98h-12.38c-.56,0-1.06-.49-1.06-.98v-46.5c0-.56.49-1.06,1.06-1.06h18.57c10.83,0,18.01,6.33,18.01,15.9,0,5.56-3.38,11.18-8.65,13.44l11.18,18.08ZM712.17,289.33c2.39,0,4.01-1.48,4.01-3.73s-1.62-3.73-4.01-3.73h-4.15v7.46h4.15Z"/><path class="cls-1" d="M770.27,313.81c.14.49,0,.78-.49,1.06-3.73,2.46-9.14,3.94-14.56,3.94-12.45,0-20.75-8.16-20.75-20.33s8.16-20.4,20.4-20.4,18.57,7.53,18.57,20.33c0,1.06-.07,2.11-.28,3.17-.07.56-.42.84-1.05.84h-22.58s0,4.43,5.91,4.43c3.59,0,7.6-.84,10.76-2.32.49-.21.91.07,1.06.56l3.02,8.72ZM759.43,295.03c0-3.1-1.9-5.14-4.71-5.14-3.17,0-5.28,2.04-5.28,5.14h9.99Z"/><path class="cls-1" d="M780.18,305.51c.14-.42.56-.49.91-.28,2.74,1.62,5.7,2.88,8.09,2.88,1.48.14,2.46-.7,2.46-1.76,0-3.59-15.41-2.46-15.41-15.69,0-7.53,6.4-12.59,15.97-12.59,4.57,0,10.06,1.62,13.79,4.01.35.28.56.63.42.99l-3.59,8.3c-.14.42-.56.49-.91.28-2.74-1.76-5.7-2.88-8.09-2.88-1.48-.14-2.46.56-2.46,1.69,0,3.73,15.41,2.39,15.41,15.76,0,7.53-6.19,12.59-15.55,12.59-4.57,0-10.27-1.62-14.21-4.01-.35-.35-.56-.7-.42-1.13l3.59-8.16Z"/><path class="cls-1" d="M849.82,298.41c0,12.24-8.3,20.4-20.68,20.4s-20.68-8.16-20.68-20.33,8.3-20.4,20.68-20.4,20.68,8.16,20.68,20.33ZM822.17,298.48c0,4.57,2.81,7.67,6.96,7.67s6.96-3.1,6.96-7.74-2.81-7.67-6.96-7.67-6.96,3.1-6.96,7.74Z"/><path class="cls-1" d="M889.27,279.06c.56,0,1.06.49,1.06,1.05v36.65c0,.49-.49.98-1.06.98h-7.95c-.56,0-.91-.49-1.13-1.05l-1.06-2.53c-2.53,2.81-6.68,4.64-11.26,4.64-9.14,0-14.56-5.84-14.56-15.41v-23.28c0-.56.49-1.05,1.06-1.05h12.38c.56,0,1.06.49,1.06,1.05v21.53c0,2.39,1.48,4.01,3.73,4.01,2.74,0,4.29-2.25,4.29-2.25v-23.28c0-.56.49-1.05,1.06-1.05h12.38Z"/><path class="cls-1" d="M917.69,279.06c.56,0,.98.42.98.98v9.14c0,.56-.42.99-.98.99h-1.83c-2.67,0-5.07,1.2-5.98,2.95v23.57c0,.56-.49,1.05-1.06,1.05h-12.38c-.56,0-1.06-.49-1.06-1.05v-36.58c0-.49.49-.98,1.06-.98h7.95c.56,0,.91.49,1.13,1.05l1.06,3.1c2.11-2.6,5.56-4.22,9.29-4.22h1.83Z"/><path class="cls-1" d="M953.28,313.68c.21.35,0,.84-.42,1.2-3.8,2.39-9,4.01-13.01,4.01-12.73,0-21.17-8.16-21.17-20.4s8.44-20.4,21.17-20.4c4.01,0,9.21,1.62,13.01,4.01.42.35.63.84.42,1.2l-4.08,8.58c-.28.56-.77.77-1.27.42-1.76-1.27-4.43-2.11-6.75-2.11-5.14,0-8.51,3.31-8.51,8.3s3.38,8.3,8.51,8.3c2.32,0,4.99-.84,6.75-2.11.49-.35.98-.14,1.27.42l4.08,8.58Z"/><path class="cls-1" d="M989.86,313.81c.14.49,0,.78-.49,1.06-3.73,2.46-9.14,3.94-14.56,3.94-12.45,0-20.75-8.16-20.75-20.33s8.16-20.4,20.4-20.4,18.57,7.53,18.57,20.33c0,1.06-.07,2.11-.28,3.17-.07.56-.42.84-1.05.84h-22.58s0,4.43,5.91,4.43c3.59,0,7.6-.84,10.76-2.32.49-.21.91.07,1.06.56l3.02,8.72ZM979.02,295.03c0-3.1-1.9-5.14-4.71-5.14-3.17,0-5.28,2.04-5.28,5.14h9.99Z"/><path class="cls-1" d="M999.77,305.51c.14-.42.56-.49.91-.28,2.74,1.62,5.7,2.88,8.09,2.88,1.48.14,2.46-.7,2.46-1.76,0-3.59-15.41-2.46-15.41-15.69,0-7.53,6.4-12.59,15.97-12.59,4.57,0,10.06,1.62,13.79,4.01.35.28.56.63.42.99l-3.59,8.3c-.14.42-.56.49-.91.28-2.74-1.76-5.7-2.88-8.09-2.88-1.48-.14-2.46.56-2.46,1.69,0,3.73,15.41,2.39,15.41,15.76,0,7.53-6.19,12.59-15.55,12.59-4.57,0-10.27-1.62-14.21-4.01-.35-.35-.56-.7-.42-1.13l3.59-8.16Z"/><path class="cls-2" d="M161.54,124.38l.18-.02s.04.19.04.19c-.13.02-.2-.04-.22-.16Z"/><path class="cls-2" d="M242.57,140.78s-37.34-38.41-80.47-31.44l-21.37,24.47s46.52-22.45,101.84,6.97Z"/><path class="cls-2" d="M242.57,140.78s15.75-51.2,57.32-64.65l30.17,12.05s-51.64,1.21-87.49,52.6Z"/><path class="cls-2" d="M244.78,149.97s-32.82-34.43-107.81-8.41l-10.73,14.06s70.67-30.83,119.94.19c29.73-50.05,113.18-55.65,113.18-55.65l-22.44-6.77c-78.6,10.99-92.14,56.59-92.14,56.59Z"/><path class="cls-2" d="M309.79,117.93c-1.16,74.67-62.03,134.84-136.98,134.84S35.81,191.43,35.81,115.77c0-40.38,17.47-76.68,45.27-101.75C40.68,40.57,14,86.29,14,138.26c0,82.06,66.53,148.59,148.59,148.59s148.59-66.53,148.59-148.59c0-6.9-.48-13.68-1.39-20.33Z"/><path class="cls-1" d="M185.08,220.73c-70.39,0-127.46-57.07-127.46-127.46,0-17.31,3.46-33.81,9.71-48.86-13.03,19.92-20.61,43.73-20.61,69.31,0,70.02,56.76,126.78,126.78,126.78,50.21,0,93.6-29.19,114.13-71.52-23.22,31.39-60.5,51.75-102.54,51.75Z"/><path class="cls-3" d="M197.69,186.65c-65.69,0-118.94-53.25-118.94-118.94,0-19.37,4.63-37.66,12.85-53.82-15.33,20.15-24.44,45.29-24.44,72.56,0,66.25,53.71,119.96,119.96,119.96,50.75,0,94.14-31.51,111.67-76.04-20.98,33.78-58.41,56.27-101.1,56.27Z"/><polygon class="cls-2" points="225.77 77.81 246.79 62.04 269.58 44.93 214.97 40.54 171.16 73.43 199.57 75.71 225.77 77.81"/><path class="cls-2" d="M247.55,64.67l-21.02,15.77-26.2-2.1c-1.1,4.6-1.06,9.54.35,14.42,4.34,14.99,20.01,23.62,35,19.28,14.99-4.34,23.62-20.01,19.28-35-1.41-4.87-4.02-9.07-7.41-12.37Z"/><path class="cls-2" d="M271.54,67.9l-5.38-18.59-3.26,2.48,4.43,15.29c.03.97-.06,1.97-.31,3.02-1.15,4.76,1.68,10.04,6.05,12.37.59.31.86.32,1.13-.38,2.08-5.47.85-10.24-2.65-14.18Z"/></svg>